<?xml version="1.0" encoding="UTF-8"?>
<svg width="700pt" height="700pt" version="1.1" viewBox="0 0 700 700" xmlns="http://www.w3.org/2000/svg">
 <g>
  <path d="m175 254.84h132.34c9.6641 0 17.5-7.8359 17.5-17.5v-132.34c0-38.598-31.402-70-70-70h-79.844c-38.598 0-70 31.402-70 70v79.844c0 38.598 31.402 70 70 70zm-35-149.84c0-19.305 15.695-35 35-35h79.844c19.305 0 35 15.695 35 35v114.84h-114.84c-19.305 0-35-15.695-35-35z"/>
  <path d="m525 35h-79.844c-38.598 0-70 31.402-70 70v132.34c0 9.6641 7.8359 17.5 17.5 17.5h132.34c38.598 0 70-31.402 70-70v-79.844c0-38.598-31.402-70-70-70zm35 149.84c0 19.305-15.695 35-35 35h-114.84v-114.84c0-19.305 15.695-35 35-35h79.844c19.305 0 35 15.695 35 35z"/>
  <path d="m175 525h79.844c38.598 0 70-31.402 70-70v-132.34c0-9.6641-7.8359-17.5-17.5-17.5h-132.34c-38.598 0-70 31.402-70 70v79.844c0 38.598 31.402 70 70 70zm-35-149.84c0-19.305 15.695-35 35-35h114.84v114.84c0 19.305-15.695 35-35 35h-79.844c-19.305 0-35-15.695-35-35z"/>
  <path d="m525 305.16h-132.34c-9.6641 0-17.5 7.8359-17.5 17.5v132.34c0 38.598 31.402 70 70 70h79.844c38.598 0 70-31.402 70-70v-79.844c0-38.598-31.402-70-70-70zm35 149.84c0 19.305-15.695 35-35 35h-79.844c-19.305 0-35-15.695-35-35v-114.84h114.84c19.305 0 35 15.695 35 35z"/>
 </g>
</svg>
